<svg version="1.1" id="Layer_1" xmlns="http://www.w3.org/2000/svg" xmlns:xlink="http://www.w3.org/1999/xlink" x="0px" y="0px"
	 width="8px" height="8px" viewBox="0 0 8 8" enable-background="new 0 0 8 8" xml:space="preserve">
<g>
	<polygon fill="#F1C40F" points="4,5.615 1.897,7.298 2.747,4.749 0.711,3.12 3.176,3.12 4,0.649 4.824,3.12 7.289,3.12 
		5.253,4.749 6.104,7.298 	"/>
	<path fill="#1D2327" d="M4,1.281L4.68,3.32h2.039L5.02,4.68l0.68,2.039L4,5.359L2.301,6.719L2.98,4.68L1.281,3.32H3.32L4,1.281
		 M4,0.016L3.621,1.155L3.032,2.92H1.281h-1.14l0.89,0.712l1.481,1.185L1.921,6.592L1.493,7.877l1.058-0.846L4,5.872l1.449,1.159
		l1.058,0.846L6.079,6.592L5.487,4.817l1.481-1.185L7.859,2.92H6.719H4.968L4.379,1.155L4,0.016L4,0.016z"/>
</g>
</svg>
